<svg width="1999" height="249" viewBox="0 0 1999 249" fill="none" xmlns="http://www.w3.org/2000/svg">
<path d="M385.931 192.342C381.203 192.342 376.972 191.596 373.24 190.103C369.507 188.735 366.334 186.806 363.721 184.318C361.108 181.706 359.055 178.72 357.561 175.361C356.193 172.002 355.508 168.333 355.508 164.352C355.508 159.127 356.628 154.586 358.868 150.73C361.108 146.749 364.654 143.39 369.507 140.653C374.484 137.916 380.83 135.739 388.544 134.122C396.259 132.38 405.591 131.198 416.541 130.576C416.043 126.347 414.177 123.05 410.941 120.686C407.831 118.323 403.102 117.141 396.757 117.141C392.277 117.141 387.735 117.949 383.132 119.567C378.652 121.059 373.799 123.112 368.573 125.725L358.868 107.811C365.214 104.203 371.995 101.217 379.212 98.8536C386.553 96.4899 394.206 95.3081 402.169 95.3081C415.11 95.3081 425.313 98.7292 432.779 105.571C440.244 112.413 443.977 122.926 443.977 137.107V190.103H421.58L419.527 179.653H418.78C414.052 183.261 408.888 186.309 403.289 188.797C397.69 191.16 391.904 192.342 385.931 192.342ZM394.703 171.069C398.81 171.069 402.667 170.261 406.275 168.644C409.884 166.902 413.306 164.787 416.541 162.299V146.997C409.697 147.371 404.036 147.993 399.556 148.864C395.077 149.734 391.531 150.854 388.918 152.222C386.305 153.466 384.438 154.959 383.318 156.701C382.323 158.443 381.825 160.309 381.825 162.299C381.825 165.285 382.945 167.524 385.185 169.017C387.549 170.385 390.722 171.069 394.703 171.069Z" fill="white"/>
<path d="M519.122 192.342C514.767 192.342 510.411 191.285 506.056 189.17C501.826 187.055 497.782 184.007 493.925 180.026H493.178L490.938 190.103H469.474V59.2935H496.911V91.3894L495.978 105.945H496.538C500.022 102.586 504.003 99.9732 508.483 98.1072C512.962 96.2411 517.442 95.3081 521.921 95.3081C527.645 95.3081 532.809 96.4277 537.413 98.667C542.141 100.906 546.06 104.078 549.171 108.184C552.406 112.165 554.895 117.079 556.637 122.926C558.379 128.648 559.25 135.055 559.25 142.146C559.25 150.108 558.13 157.198 555.89 163.419C553.65 169.639 550.664 174.926 546.931 179.28C543.198 183.51 538.906 186.744 534.053 188.983C529.325 191.223 524.348 192.342 519.122 192.342ZM512.962 169.95C518.064 169.95 522.357 167.835 525.841 163.605C529.325 159.251 531.067 152.285 531.067 142.706C531.067 126.036 525.405 117.701 514.082 117.701C508.234 117.701 502.51 120.562 496.911 126.284V163.792C499.524 166.031 502.199 167.648 504.937 168.644C507.798 169.514 510.474 169.95 512.962 169.95Z" fill="white"/>
<path d="M581.387 190.103V59.2935H608.824V91.3894L607.331 109.117H607.891C611.375 105.509 615.605 102.337 620.582 99.6C625.56 96.7387 631.594 95.3081 638.687 95.3081C649.139 95.3081 656.729 98.667 661.457 105.385C666.31 112.102 668.736 121.308 668.736 133.002V190.103H641.3V136.548C641.3 130.327 640.304 125.787 638.314 122.926C636.323 120.064 632.776 118.634 627.675 118.634C623.942 118.634 620.645 119.442 617.783 121.059C615.045 122.677 612.059 125.103 608.824 128.337V190.103H581.387Z" fill="white"/>
<path d="M731.749 190.103V119.007H694.607V97.5474H759.185V190.103H731.749ZM744.254 82.9922C738.903 82.9922 734.486 81.4994 731.002 78.5137C727.643 75.528 725.963 71.485 725.963 66.3844C725.963 61.2839 727.643 57.1786 731.002 54.0686C734.486 50.8341 738.903 49.2168 744.254 49.2168C749.604 49.2168 753.959 50.8341 757.319 54.0686C760.803 57.1786 762.545 61.2839 762.545 66.3844C762.545 71.485 760.803 75.528 757.319 78.5137C753.959 81.4994 749.604 82.9922 744.254 82.9922Z" fill="white"/>
<path d="M805.213 190.103V97.5474H827.61L829.663 109.863H830.41C834.392 105.882 838.933 102.461 844.035 99.6C849.261 96.7387 855.358 95.3081 862.326 95.3081C872.778 95.3081 880.43 98.667 885.283 105.385C890.136 112.102 892.562 121.308 892.562 133.002V190.103H865.126V136.548C865.126 130.327 864.13 125.787 862.139 122.926C860.149 120.064 856.602 118.634 851.501 118.634C847.768 118.634 844.471 119.442 841.609 121.059C838.871 122.677 835.885 125.103 832.65 128.337V190.103H805.213Z" fill="white"/>
<path d="M945.496 192.342C940.768 192.342 936.537 191.596 932.804 190.103C929.071 188.735 925.898 186.806 923.285 184.318C920.672 181.706 918.619 178.72 917.126 175.361C915.758 172.002 915.073 168.333 915.073 164.352C915.073 159.127 916.193 154.586 918.433 150.73C920.672 146.749 924.219 143.39 929.071 140.653C934.049 137.916 940.394 135.739 948.109 134.122C955.824 132.38 965.156 131.198 976.105 130.576C975.608 126.347 973.741 123.05 970.506 120.686C967.395 118.323 962.667 117.141 956.321 117.141C951.842 117.141 947.3 117.949 942.696 119.567C938.217 121.059 933.364 123.112 928.138 125.725L918.433 107.811C924.779 104.203 931.56 101.217 938.777 98.8536C946.118 96.4899 953.77 95.3081 961.734 95.3081C974.675 95.3081 984.878 98.7292 992.343 105.571C999.809 112.413 1003.54 122.926 1003.54 137.107V190.103H981.145L979.092 179.653H978.345C973.617 183.261 968.453 186.309 962.854 188.797C957.254 191.16 951.469 192.342 945.496 192.342ZM954.268 171.069C958.374 171.069 962.232 170.261 965.84 168.644C969.449 166.902 972.87 164.787 976.105 162.299V146.997C969.262 147.371 963.6 147.993 959.121 148.864C954.641 149.734 951.095 150.854 948.482 152.222C945.869 153.466 944.003 154.959 942.883 156.701C941.887 158.443 941.39 160.309 941.39 162.299C941.39 165.285 942.51 167.524 944.749 169.017C947.114 170.385 950.286 171.069 954.268 171.069Z" fill="white"/>
<path d="M1056.29 190.103L1021.39 97.5474H1049.01L1063.57 141.213C1065.06 145.94 1066.49 150.667 1067.86 155.395C1069.23 160.122 1070.6 164.911 1071.97 169.763H1072.71C1074.08 164.911 1075.39 160.122 1076.63 155.395C1078 150.667 1079.43 145.94 1080.93 141.213L1095.48 97.5474H1121.8L1087.83 190.103H1056.29Z" fill="white"/>
<path d="M1185 233.209C1170.94 233.209 1160.43 230.845 1153.46 226.118C1146.61 221.39 1143.19 215.108 1143.19 207.271C1143.19 203.663 1144.5 199.993 1147.11 196.261C1149.72 192.529 1153.46 189.17 1158.31 186.184V185.438C1156.07 184.318 1153.95 182.577 1151.96 180.213C1149.97 177.849 1148.98 174.801 1148.98 171.069C1148.98 168.208 1149.85 165.285 1151.59 162.299C1153.46 159.313 1156.19 156.576 1159.8 154.088V153.342C1156.94 150.978 1154.45 147.93 1152.34 144.198C1150.22 140.342 1149.16 135.677 1149.16 130.203C1149.16 125.6 1150.04 121.37 1151.78 117.514C1153.52 113.533 1155.88 110.174 1158.87 107.437C1161.98 104.576 1165.53 102.337 1169.51 100.72C1173.61 99.1024 1177.97 98.2938 1182.57 98.2938C1187.18 98.2938 1191.28 99.0402 1194.89 100.533H1232.22V107.624H1205.16C1207.89 110.361 1210.32 113.658 1212.44 117.514C1214.55 121.37 1215.61 125.662 1215.61 130.39C1215.61 134.993 1214.74 139.222 1213 143.079C1211.25 146.811 1208.89 150.045 1205.9 152.782C1202.92 155.519 1199.43 157.696 1195.45 159.313C1191.47 160.806 1187.18 161.553 1182.57 161.553C1179.84 161.553 1176.97 161.242 1173.99 160.62C1171.13 159.873 1168.33 158.816 1165.59 157.447C1162.98 159.065 1160.86 160.931 1159.24 163.045C1157.63 165.16 1156.82 167.462 1156.82 169.95C1156.82 174.304 1158.68 177.476 1162.42 179.467C1166.15 181.457 1171.19 182.452 1177.53 182.452H1199.74C1211.19 182.452 1219.47 184.007 1224.57 187.117C1229.79 190.103 1232.41 195.266 1232.41 202.606C1232.41 206.462 1231.29 210.194 1229.05 213.802C1226.81 217.534 1223.63 220.831 1219.53 223.692C1215.42 226.553 1210.45 228.855 1204.6 230.596C1198.75 232.338 1192.22 233.209 1185 233.209ZM1182.57 155.021C1185.93 155.021 1189.11 154.462 1192.09 153.342C1195.2 152.098 1197.88 150.419 1200.12 148.304C1202.36 146.064 1204.1 143.452 1205.34 140.466C1206.71 137.356 1207.4 133.935 1207.4 130.203C1207.4 126.595 1206.71 123.299 1205.34 120.313C1204.1 117.203 1202.36 114.528 1200.12 112.289C1197.88 110.05 1195.2 108.308 1192.09 107.064C1189.11 105.82 1185.93 105.198 1182.57 105.198C1179.09 105.198 1175.79 105.82 1172.68 107.064C1169.7 108.308 1167.08 110.05 1164.84 112.289C1162.6 114.528 1160.8 117.203 1159.43 120.313C1158.19 123.299 1157.56 126.595 1157.56 130.203C1157.56 133.935 1158.19 137.356 1159.43 140.466C1160.8 143.452 1162.6 146.064 1164.84 148.304C1167.08 150.419 1169.7 152.098 1172.68 153.342C1175.79 154.462 1179.09 155.021 1182.57 155.021ZM1184.44 226.491C1190.54 226.491 1196.01 225.807 1200.86 224.438C1205.84 223.07 1210.01 221.328 1213.37 219.213C1216.73 217.098 1219.28 214.673 1221.02 211.936C1222.89 209.199 1223.82 206.4 1223.82 203.539C1223.82 198.438 1221.89 194.955 1218.04 193.089C1214.18 191.223 1208.33 190.29 1200.49 190.29H1179.21C1176.97 190.29 1174.67 190.165 1172.31 189.916C1169.94 189.668 1167.7 189.232 1165.59 188.61C1160.11 191.471 1156.32 194.519 1154.2 197.754C1152.09 200.988 1151.03 204.223 1151.03 207.457C1151.03 212.931 1153.77 217.472 1159.24 221.079C1164.72 224.687 1173.12 226.491 1184.44 226.491Z" fill="white"/>
<path d="M1287.77 192.342C1266.37 192.342 1255.66 180.337 1255.66 156.328V100.533H1263.88V155.208C1263.88 165.285 1265.81 172.749 1269.66 177.601C1273.64 182.452 1280.12 184.878 1289.07 184.878C1292.18 184.878 1295.17 184.505 1298.03 183.758C1300.89 182.888 1303.69 181.644 1306.43 180.026C1309.17 178.285 1311.91 176.17 1314.64 173.682C1317.38 171.069 1320.31 168.022 1323.42 164.538V100.533H1331.63V190.103H1324.72L1323.79 172.749H1323.04C1318.19 178.471 1312.9 183.199 1307.18 186.931C1301.45 190.538 1294.98 192.342 1287.77 192.342Z" fill="white"/>
<path d="M1370.94 230.596V100.533H1378.03L1378.96 113.409H1379.34C1383.82 109.055 1389.04 105.447 1395.01 102.586C1400.99 99.7244 1406.9 98.2938 1412.75 98.2938C1425.44 98.2938 1434.96 102.461 1441.3 110.796C1447.65 119.007 1450.82 130.079 1450.82 144.012C1450.82 151.6 1449.64 158.38 1447.27 164.352C1445.03 170.323 1441.99 175.424 1438.13 179.653C1434.4 183.758 1429.98 186.931 1424.88 189.17C1419.78 191.285 1414.43 192.342 1408.83 192.342C1404.47 192.342 1399.56 191.223 1394.08 188.983C1388.61 186.744 1383.63 183.634 1379.15 179.653H1378.78L1379.34 197.94V230.596H1370.94ZM1408.45 185.065C1413.31 185.065 1417.78 184.07 1421.89 182.079C1426 180.089 1429.54 177.29 1432.53 173.682C1435.52 170.074 1437.82 165.782 1439.44 160.806C1441.18 155.706 1442.05 150.108 1442.05 144.012C1442.05 138.538 1441.49 133.438 1440.37 128.71C1439.25 123.983 1437.44 119.94 1434.96 116.581C1432.59 113.098 1429.42 110.423 1425.44 108.557C1421.58 106.567 1416.91 105.571 1411.44 105.571C1406.71 105.571 1401.55 106.94 1395.95 109.677C1390.47 112.289 1384.94 116.394 1379.34 121.993V171.816C1384.56 176.543 1389.79 179.964 1395.01 182.079C1400.36 184.07 1404.84 185.065 1408.45 185.065Z" fill="white"/>
<path d="M1537.35 192.342C1531.13 192.342 1525.96 191.471 1521.86 189.73C1517.75 187.988 1514.46 185.562 1511.97 182.452C1509.6 179.342 1507.86 175.61 1506.74 171.256C1505.75 166.778 1505.25 161.864 1505.25 156.514V107.624H1478.18V101.279L1505.43 100.533L1506.55 70.8629H1513.46V100.533H1561.24V107.624H1513.46V157.261C1513.46 161.615 1513.83 165.533 1514.58 169.017C1515.33 172.376 1516.63 175.299 1518.5 177.787C1520.37 180.151 1522.92 181.955 1526.15 183.199C1529.39 184.443 1533.49 185.065 1538.47 185.065C1543.2 185.065 1547.43 184.692 1551.16 183.945C1555.02 183.074 1558.75 181.892 1562.36 180.4L1564.6 186.744C1560.49 188.486 1556.33 189.854 1552.09 190.849C1547.86 191.845 1542.95 192.342 1537.35 192.342Z" fill="white"/>
<path d="M1623.51 192.342C1619.52 192.342 1615.6 191.845 1611.75 190.849C1608.01 189.854 1604.72 188.361 1601.86 186.371C1598.99 184.381 1596.69 181.83 1594.95 178.72C1593.21 175.61 1592.34 171.94 1592.34 167.711C1592.34 162.734 1593.64 158.38 1596.26 154.648C1598.87 150.916 1602.91 147.682 1608.39 144.945C1613.99 142.208 1621.08 139.969 1629.67 138.227C1638.38 136.485 1648.83 135.055 1661.02 133.935C1661.02 130.203 1660.59 126.658 1659.71 123.299C1658.84 119.815 1657.35 116.768 1655.24 114.155C1653.24 111.543 1650.51 109.49 1647.02 107.997C1643.66 106.38 1639.43 105.571 1634.33 105.571C1630.97 105.571 1627.67 105.945 1624.44 106.691C1621.2 107.437 1618.09 108.433 1615.11 109.677C1612.12 110.921 1609.38 112.289 1606.89 113.782C1604.41 115.15 1602.23 116.457 1600.36 117.701L1596.63 111.543C1598.37 110.299 1600.61 108.93 1603.35 107.437C1606.21 105.82 1609.32 104.389 1612.68 103.145C1616.04 101.777 1619.65 100.657 1623.51 99.7866C1627.36 98.7914 1631.28 98.2938 1635.26 98.2938C1641.24 98.2938 1646.34 99.2268 1650.57 101.093C1654.92 102.834 1658.47 105.26 1661.21 108.37C1663.95 111.48 1665.94 115.15 1667.18 119.38C1668.55 123.485 1669.23 127.964 1669.23 132.816V190.103H1662.33L1661.39 176.668H1661.02C1655.8 180.773 1649.89 184.443 1643.29 187.677C1636.82 190.787 1630.23 192.342 1623.51 192.342ZM1625 185.251C1636.32 185.251 1648.33 179.84 1661.02 169.017V140.28C1649.57 141.275 1639.99 142.581 1632.28 144.198C1624.69 145.816 1618.53 147.744 1613.8 149.983C1609.07 152.222 1605.71 154.773 1603.72 157.634C1601.73 160.495 1600.74 163.73 1600.74 167.337C1600.74 170.572 1601.42 173.309 1602.79 175.548C1604.16 177.787 1605.96 179.653 1608.2 181.146C1610.57 182.514 1613.18 183.572 1616.04 184.318C1619.03 184.94 1622.01 185.251 1625 185.251Z" fill="white"/>
<path d="M1733.55 192.342C1728.45 192.342 1723.85 191.72 1719.74 190.476C1715.63 189.357 1711.96 187.864 1708.73 185.998C1705.62 184.132 1702.82 182.079 1700.33 179.84C1697.97 177.476 1695.85 175.112 1693.98 172.749L1699.58 168.457C1701.08 170.447 1702.82 172.5 1704.81 174.615C1706.92 176.605 1709.35 178.409 1712.09 180.026C1714.95 181.644 1718.19 183.012 1721.79 184.132C1725.4 185.127 1729.45 185.625 1733.93 185.625C1738.65 185.625 1743.07 185.003 1747.18 183.758C1751.41 182.514 1755.08 180.711 1758.19 178.347C1761.42 175.859 1763.98 172.873 1765.84 169.39C1767.71 165.782 1768.64 161.677 1768.64 157.074C1768.64 149.361 1765.47 143.203 1759.12 138.6C1752.78 133.873 1742.2 131.385 1727.39 131.136L1728.51 124.605C1736.48 124.605 1743.32 123.859 1749.04 122.366C1754.89 120.873 1759.68 118.82 1763.42 116.208C1767.15 113.595 1769.89 110.547 1771.63 107.064C1773.37 103.456 1774.24 99.6 1774.24 95.4947C1774.24 88.9014 1772 83.9252 1767.52 80.5664C1763.17 77.0831 1757.44 75.3414 1750.35 75.3414C1743.51 75.3414 1737.41 76.6477 1732.06 79.2601C1726.71 81.7482 1721.92 84.9205 1717.69 88.7769L1713.4 83.552C1717.87 79.5711 1723.35 76.0879 1729.82 73.1022C1736.29 70.1165 1743.44 68.6237 1751.28 68.6237C1755.76 68.6237 1759.87 69.1835 1763.6 70.3031C1767.34 71.2984 1770.57 72.9156 1773.31 75.1548C1776.05 77.2697 1778.16 79.9444 1779.65 83.1788C1781.27 86.2889 1782.08 89.8966 1782.08 94.0019C1782.08 102.586 1779.4 109.863 1774.05 115.835C1768.7 121.681 1760.37 125.662 1749.04 127.777V128.337C1758 130.079 1764.78 133.313 1769.39 138.04C1773.99 142.643 1776.29 148.677 1776.29 156.141C1776.29 161.988 1775.17 167.213 1772.93 171.816C1770.82 176.294 1767.83 180.089 1763.98 183.199C1760.12 186.184 1755.58 188.486 1750.35 190.103C1745.25 191.596 1739.65 192.342 1733.55 192.342Z" fill="white"/>
<path d="M1830.53 190.103C1833.64 177.29 1837.07 165.782 1840.8 155.581C1844.66 145.38 1849.07 135.926 1854.05 127.217C1859.15 118.385 1864.94 109.988 1871.41 102.026C1878 94.0641 1885.66 85.9157 1894.37 77.5807H1821.95L1823.26 70.8629H1905.75L1904.82 75.9013C1894.86 85.3559 1886.4 94.3129 1879.43 102.772C1872.59 111.232 1866.68 119.878 1861.7 128.71C1856.85 137.543 1852.68 146.935 1849.2 156.887C1845.84 166.715 1842.67 177.787 1839.68 190.103H1830.53Z" fill="white"/>
<path d="M1920.24 190.103L1921.73 183.385H1957.19L1977.16 83.552H1950.85L1951.78 78.3271C1957.75 77.7051 1963.29 76.7721 1968.39 75.528C1973.62 74.1596 1977.91 72.6046 1981.27 70.8629H1987.61L1964.84 183.385H1999L1997.88 190.103H1920.24Z" fill="white"/>
<path d="M0 249L117.818 0L176.144 125.375H139.982L117.818 82.8056L41.9947 249H0Z" fill="white"/>
<path d="M267.133 249H83.9894L103.82 207.597H191.309L168.562 178.44H117.818L126.567 149.867H191.309L267.133 249Z" fill="white"/>
</svg>
